<svg viewBox="0 0 16 16" xmlns="http://www.w3.org/2000/svg"><path fill-rule="evenodd" clip-rule="evenodd" d="M6 2.984V2h-.09q-.47 0-.909.185a2.3 2.3 0 0 0-.775.53 2.2 2.2 0 0 0-.493.753v.001a3.5 3.5 0 0 0-.198.83v.002a6 6 0 0 0-.024.863q.018.435.018.869 0 .304-.117.572v.001a1.5 1.5 0 0 1-.765.787 1.4 1.4 0 0 1-.558.115H2v.984h.09q.292 0 .556.121l.001.001q.267.117.455.318l.002.002q.196.195.307.465l.001.002q.117.27.117.566 0 .435-.018.869-.018.443.024.87v.001q.05.425.197.824v.001q.16.41.494.753.335.345.775.53t.91.185H6v-.984h-.09q-.299 0-.562-.115a1.6 1.6 0 0 1-.457-.32 1.7 1.7 0 0 1-.309-.467q-.11-.27-.11-.573 0-.343.011-.672.012-.342 0-.665a5 5 0 0 0-.055-.64 2.7 2.7 0 0 0-.168-.609A2.3 2.3 0 0 0 3.522 8a2.3 2.3 0 0 0 .738-.955q.12-.288.168-.602.05-.315.055-.64.012-.33 0-.666t-.012-.678a1.47 1.47 0 0 1 .877-1.354 1.3 1.3 0 0 1 .563-.121zm4 10.032V14h.09q.47 0 .909-.185t.775-.53.493-.753v-.001q.15-.4.198-.83v-.002q.042-.42.024-.863-.018-.435-.018-.869 0-.304.117-.572v-.001a1.5 1.5 0 0 1 .765-.787q.264-.115.558-.115H14v-.984h-.09q-.292 0-.556-.121l-.001-.001a1.4 1.4 0 0 1-.455-.318l-.002-.002a1.4 1.4 0 0 1-.307-.465l-.001-.002a1.4 1.4 0 0 1-.117-.566q0-.435.018-.869a6 6 0 0 0-.024-.87v-.001a3.5 3.5 0 0 0-.197-.824v-.001a2.2 2.2 0 0 0-.494-.753 2.3 2.3 0 0 0-.775-.53 2.3 2.3 0 0 0-.91-.185H10v.984h.09q.299 0 .562.115.26.123.457.32.19.201.309.467.11.27.11.573 0 .342-.011.672-.012.342 0 .665.006.333.055.64.05.32.168.609a2.3 2.3 0 0 0 .738.955 2.3 2.3 0 0 0-.738.955 2.7 2.7 0 0 0-.168.602q-.05.315-.055.64-.012.33 0 .666t.012.678a1.47 1.47 0 0 1-.42 1.035 1.5 1.5 0 0 1-.457.319 1.3 1.3 0 0 1-.563.121z"/></svg>